<svg xmlns="http://www.w3.org/2000/svg" viewBox="0 0 760 534" width="760" height="534" role="img"><rect x="0" y="0" width="760" height="534" rx="10" fill="#ffffff" stroke="#d1d5db"/><text x="24" y="26" font-family="ui-monospace,monospace" font-size="16" font-weight="700" fill="#1f2937">Throughput: scan</text><text x="24" y="44" font-family="ui-monospace,monospace" font-size="11" fill="#6b7280">higher is better, error bars are 95% CI</text><text x="140" y="77" text-anchor="end" font-family="ui-monospace,monospace" font-size="12" font-weight="400" fill="#1f2937">SIEVE</text><rect x="150" y="63" width="536.4" height="18" rx="3" fill="#94a3b8"/><line x1="683.6" y1="72" x2="689.2" y2="72" stroke="#1f2937" stroke-width="1"/><text x="694.4091315046982" y="77" font-family="ui-monospace,monospace" font-size="11" fill="#1f2937">25.8 ± 0.1</text><text x="140" y="107" text-anchor="end" font-family="ui-monospace,monospace" font-size="12" font-weight="400" fill="#1f2937">CLOCK</text><rect x="150" y="93" width="390.5" height="18" rx="3" fill="#94a3b8"/><line x1="534.8" y1="102" x2="546.2" y2="102" stroke="#1f2937" stroke-width="1"/><text x="548.503154017076" y="107" font-family="ui-monospace,monospace" font-size="11" fill="#1f2937">18.8 ± 0.3</text><text x="140" y="137" text-anchor="end" font-family="ui-monospace,monospace" font-size="12" font-weight="400" fill="#1f2937">quick-lru</text><rect x="150" y="123" width="369.4" height="18" rx="3" fill="#94a3b8"/><line x1="517.6" y1="132" x2="521.3" y2="132" stroke="#1f2937" stroke-width="1"/><text x="527.4462623313558" y="137" font-family="ui-monospace,monospace" font-size="11" fill="#1f2937">17.7 ± 0.1</text><text x="140" y="167" text-anchor="end" font-family="ui-monospace,monospace" font-size="12" font-weight="400" fill="#1f2937">mnemonist</text><rect x="150" y="153" width="349.3" height="18" rx="3" fill="#94a3b8"/><line x1="494.6" y1="162" x2="504.0" y2="162" stroke="#1f2937" stroke-width="1"/><text x="507.289534907854" y="167" font-family="ui-monospace,monospace" font-size="11" fill="#1f2937">16.8 ± 0.2</text><text x="140" y="197" text-anchor="end" font-family="ui-monospace,monospace" font-size="12" font-weight="400" fill="#1f2937">Random</text><rect x="150" y="183" width="324.7" height="18" rx="3" fill="#94a3b8"/><line x1="470.6" y1="192" x2="478.9" y2="192" stroke="#1f2937" stroke-width="1"/><text x="482.7145526331262" y="197" font-family="ui-monospace,monospace" font-size="11" fill="#1f2937">15.6 ± 0.2</text><text x="140" y="227" text-anchor="end" font-family="ui-monospace,monospace" font-size="12" font-weight="400" fill="#1f2937">lru.min</text><rect x="150" y="213" width="318.6" height="18" rx="3" fill="#94a3b8"/><line x1="465.4" y1="222" x2="471.7" y2="222" stroke="#1f2937" stroke-width="1"/><text x="476.56183254082225" y="227" font-family="ui-monospace,monospace" font-size="11" fill="#1f2937">15.3 ± 0.2</text><text x="140" y="257" text-anchor="end" font-family="ui-monospace,monospace" font-size="12" font-weight="400" fill="#1f2937">lru-cache</text><rect x="150" y="243" width="270.3" height="18" rx="3" fill="#94a3b8"/><line x1="418.8" y1="252" x2="421.8" y2="252" stroke="#1f2937" stroke-width="1"/><text x="428.2596315929356" y="257" font-family="ui-monospace,monospace" font-size="11" fill="#1f2937">13.0 ± 0.1</text><text x="140" y="287" text-anchor="end" font-family="ui-monospace,monospace" font-size="12" font-weight="400" fill="#1f2937">tiny-lru</text><rect x="150" y="273" width="226.7" height="18" rx="3" fill="#94a3b8"/><line x1="375.7" y1="282" x2="377.8" y2="282" stroke="#1f2937" stroke-width="1"/><text x="384.7313114748679" y="287" font-family="ui-monospace,monospace" font-size="11" fill="#1f2937">10.9 ± 0.1</text><text x="140" y="317" text-anchor="end" font-family="ui-monospace,monospace" font-size="12" font-weight="400" fill="#1f2937">hashlru</text><rect x="150" y="303" width="224.9" height="18" rx="3" fill="#94a3b8"/><line x1="374.0" y1="312" x2="375.7" y2="312" stroke="#1f2937" stroke-width="1"/><text x="382.8551346135522" y="317" font-family="ui-monospace,monospace" font-size="11" fill="#1f2937">10.8 ± 0.0</text><text x="140" y="347" text-anchor="end" font-family="ui-monospace,monospace" font-size="12" font-weight="700" fill="#1f2937">caffea</text><rect x="150" y="333" width="212.6" height="18" rx="3" fill="#0ea5e9"/><line x1="361.3" y1="342" x2="363.8" y2="342" stroke="#1f2937" stroke-width="1"/><text x="370.5595914650147" y="347" font-family="ui-monospace,monospace" font-size="11" fill="#1f2937">10.2 ± 0.1</text><text x="140" y="377" text-anchor="end" font-family="ui-monospace,monospace" font-size="12" font-weight="400" fill="#1f2937">transitory</text><rect x="150" y="363" width="167.0" height="18" rx="3" fill="#94a3b8"/><line x1="310.8" y1="372" x2="323.2" y2="372" stroke="#1f2937" stroke-width="1"/><text x="325.0082272475172" y="377" font-family="ui-monospace,monospace" font-size="11" fill="#1f2937">8.0 ± 0.3</text><text x="140" y="407" text-anchor="end" font-family="ui-monospace,monospace" font-size="12" font-weight="400" fill="#1f2937">LRU</text><rect x="150" y="393" width="139.5" height="18" rx="3" fill="#94a3b8"/><line x1="288.9" y1="402" x2="290.1" y2="402" stroke="#1f2937" stroke-width="1"/><text x="297.4860712205956" y="407" font-family="ui-monospace,monospace" font-size="11" fill="#1f2937">6.7 ± 0.0</text><text x="140" y="437" text-anchor="end" font-family="ui-monospace,monospace" font-size="12" font-weight="400" fill="#1f2937">LFU</text><rect x="150" y="423" width="113.0" height="18" rx="3" fill="#94a3b8"/><line x1="262.2" y1="432" x2="263.8" y2="432" stroke="#1f2937" stroke-width="1"/><text x="271.03127701804897" y="437" font-family="ui-monospace,monospace" font-size="11" fill="#1f2937">5.4 ± 0.0</text><text x="140" y="467" text-anchor="end" font-family="ui-monospace,monospace" font-size="12" font-weight="400" fill="#1f2937">FIFO</text><rect x="150" y="453" width="97.2" height="18" rx="3" fill="#94a3b8"/><line x1="246.1" y1="462" x2="248.3" y2="462" stroke="#1f2937" stroke-width="1"/><text x="255.21635535157378" y="467" font-family="ui-monospace,monospace" font-size="11" fill="#1f2937">4.7 ± 0.1</text><text x="140" y="497" text-anchor="end" font-family="ui-monospace,monospace" font-size="12" font-weight="400" fill="#1f2937">S3-FIFO</text><rect x="150" y="483" width="73.9" height="18" rx="3" fill="#94a3b8"/><line x1="222.4" y1="492" x2="225.3" y2="492" stroke="#1f2937" stroke-width="1"/><text x="231.860807260544" y="497" font-family="ui-monospace,monospace" font-size="11" fill="#1f2937">3.5 ± 0.1</text><text x="700" y="526" text-anchor="end" font-family="ui-monospace,monospace" font-size="11" fill="#6b7280">Mops/s</text></svg>