<svg xmlns="http://www.w3.org/2000/svg" viewBox="0 0 760 534" width="760" height="534" role="img"><rect x="0" y="0" width="760" height="534" rx="10" fill="#ffffff" stroke="#d1d5db"/><text x="24" y="26" font-family="ui-monospace,monospace" font-size="16" font-weight="700" fill="#1f2937">Throughput: two-pool</text><text x="24" y="44" font-family="ui-monospace,monospace" font-size="11" fill="#6b7280">higher is better, error bars are 95% CI</text><text x="140" y="77" text-anchor="end" font-family="ui-monospace,monospace" font-size="12" font-weight="400" fill="#1f2937">SIEVE</text><rect x="150" y="63" width="530.4" height="18" rx="3" fill="#94a3b8"/><line x1="671.7" y1="72" x2="689.2" y2="72" stroke="#1f2937" stroke-width="1"/><text x="688.4334856222855" y="77" font-family="ui-monospace,monospace" font-size="11" fill="#1f2937">27.9 ± 0.5</text><text x="140" y="107" text-anchor="end" font-family="ui-monospace,monospace" font-size="12" font-weight="400" fill="#1f2937">CLOCK</text><rect x="150" y="93" width="478.5" height="18" rx="3" fill="#94a3b8"/><line x1="612.4" y1="102" x2="644.5" y2="102" stroke="#1f2937" stroke-width="1"/><text x="636.476011412469" y="107" font-family="ui-monospace,monospace" font-size="11" fill="#1f2937">25.2 ± 0.8</text><text x="140" y="137" text-anchor="end" font-family="ui-monospace,monospace" font-size="12" font-weight="400" fill="#1f2937">quick-lru</text><rect x="150" y="123" width="432.7" height="18" rx="3" fill="#94a3b8"/><line x1="578.7" y1="132" x2="586.6" y2="132" stroke="#1f2937" stroke-width="1"/><text x="590.6645058680924" y="137" font-family="ui-monospace,monospace" font-size="11" fill="#1f2937">22.8 ± 0.2</text><text x="140" y="167" text-anchor="end" font-family="ui-monospace,monospace" font-size="12" font-weight="400" fill="#1f2937">Random</text><rect x="150" y="153" width="431.2" height="18" rx="3" fill="#94a3b8"/><line x1="569.4" y1="162" x2="593.0" y2="162" stroke="#1f2937" stroke-width="1"/><text x="589.1910917564821" y="167" font-family="ui-monospace,monospace" font-size="11" fill="#1f2937">22.7 ± 0.6</text><text x="140" y="197" text-anchor="end" font-family="ui-monospace,monospace" font-size="12" font-weight="400" fill="#1f2937">mnemonist</text><rect x="150" y="183" width="392.1" height="18" rx="3" fill="#94a3b8"/><line x1="533.6" y1="192" x2="550.6" y2="192" stroke="#1f2937" stroke-width="1"/><text x="550.0705336621927" y="197" font-family="ui-monospace,monospace" font-size="11" fill="#1f2937">20.6 ± 0.4</text><text x="140" y="227" text-anchor="end" font-family="ui-monospace,monospace" font-size="12" font-weight="400" fill="#1f2937">lru.min</text><rect x="150" y="213" width="353.9" height="18" rx="3" fill="#94a3b8"/><line x1="496.2" y1="222" x2="511.7" y2="222" stroke="#1f2937" stroke-width="1"/><text x="511.9147931534239" y="227" font-family="ui-monospace,monospace" font-size="11" fill="#1f2937">18.6 ± 0.4</text><text x="140" y="257" text-anchor="end" font-family="ui-monospace,monospace" font-size="12" font-weight="400" fill="#1f2937">tiny-lru</text><rect x="150" y="243" width="329.9" height="18" rx="3" fill="#94a3b8"/><line x1="469.1" y1="252" x2="490.7" y2="252" stroke="#1f2937" stroke-width="1"/><text x="487.8718608503301" y="257" font-family="ui-monospace,monospace" font-size="11" fill="#1f2937">17.4 ± 0.6</text><text x="140" y="287" text-anchor="end" font-family="ui-monospace,monospace" font-size="12" font-weight="400" fill="#1f2937">hashlru</text><rect x="150" y="273" width="303.1" height="18" rx="3" fill="#94a3b8"/><line x1="446.9" y1="282" x2="459.3" y2="282" stroke="#1f2937" stroke-width="1"/><text x="461.1098506689502" y="287" font-family="ui-monospace,monospace" font-size="11" fill="#1f2937">16.0 ± 0.3</text><text x="140" y="317" text-anchor="end" font-family="ui-monospace,monospace" font-size="12" font-weight="400" fill="#1f2937">lru-cache</text><rect x="150" y="303" width="294.5" height="18" rx="3" fill="#94a3b8"/><line x1="440.6" y1="312" x2="448.4" y2="312" stroke="#1f2937" stroke-width="1"/><text x="452.4546751777881" y="317" font-family="ui-monospace,monospace" font-size="11" fill="#1f2937">15.5 ± 0.2</text><text x="140" y="347" text-anchor="end" font-family="ui-monospace,monospace" font-size="12" font-weight="700" fill="#1f2937">caffea</text><rect x="150" y="333" width="230.5" height="18" rx="3" fill="#0ea5e9"/><line x1="376.6" y1="342" x2="384.4" y2="342" stroke="#1f2937" stroke-width="1"/><text x="388.5227920663365" y="347" font-family="ui-monospace,monospace" font-size="11" fill="#1f2937">12.1 ± 0.2</text><text x="140" y="377" text-anchor="end" font-family="ui-monospace,monospace" font-size="12" font-weight="400" fill="#1f2937">transitory</text><rect x="150" y="363" width="183.1" height="18" rx="3" fill="#94a3b8"/><line x1="330.3" y1="372" x2="335.8" y2="372" stroke="#1f2937" stroke-width="1"/><text x="341.0912044629325" y="377" font-family="ui-monospace,monospace" font-size="11" fill="#1f2937">9.6 ± 0.1</text><text x="140" y="407" text-anchor="end" font-family="ui-monospace,monospace" font-size="12" font-weight="400" fill="#1f2937">LRU</text><rect x="150" y="393" width="177.4" height="18" rx="3" fill="#94a3b8"/><line x1="324.8" y1="402" x2="329.9" y2="402" stroke="#1f2937" stroke-width="1"/><text x="335.35919306899274" y="407" font-family="ui-monospace,monospace" font-size="11" fill="#1f2937">9.3 ± 0.1</text><text x="140" y="437" text-anchor="end" font-family="ui-monospace,monospace" font-size="12" font-weight="400" fill="#1f2937">LFU</text><rect x="150" y="423" width="83.8" height="18" rx="3" fill="#94a3b8"/><line x1="232.6" y1="432" x2="235.0" y2="432" stroke="#1f2937" stroke-width="1"/><text x="241.77149652965" y="437" font-family="ui-monospace,monospace" font-size="11" fill="#1f2937">4.4 ± 0.1</text><text x="140" y="467" text-anchor="end" font-family="ui-monospace,monospace" font-size="12" font-weight="400" fill="#1f2937">FIFO</text><rect x="150" y="453" width="78.7" height="18" rx="3" fill="#94a3b8"/><line x1="227.9" y1="462" x2="229.5" y2="462" stroke="#1f2937" stroke-width="1"/><text x="236.70705245943623" y="467" font-family="ui-monospace,monospace" font-size="11" fill="#1f2937">4.1 ± 0.0</text><text x="140" y="497" text-anchor="end" font-family="ui-monospace,monospace" font-size="12" font-weight="400" fill="#1f2937">S3-FIFO</text><rect x="150" y="483" width="61.8" height="18" rx="3" fill="#94a3b8"/><line x1="211.4" y1="492" x2="212.2" y2="492" stroke="#1f2937" stroke-width="1"/><text x="219.80066417133787" y="497" font-family="ui-monospace,monospace" font-size="11" fill="#1f2937">3.3 ± 0.0</text><text x="700" y="526" text-anchor="end" font-family="ui-monospace,monospace" font-size="11" fill="#6b7280">Mops/s</text></svg>