<svg xmlns="http://www.w3.org/2000/svg" viewBox="0 0 760 534" width="760" height="534" role="img"><rect x="0" y="0" width="760" height="534" rx="10" fill="#ffffff" stroke="#d1d5db"/><text x="24" y="26" font-family="ui-monospace,monospace" font-size="16" font-weight="700" fill="#1f2937">Throughput: zipf-0.99</text><text x="24" y="44" font-family="ui-monospace,monospace" font-size="11" fill="#6b7280">higher is better, error bars are 95% CI</text><text x="140" y="77" text-anchor="end" font-family="ui-monospace,monospace" font-size="12" font-weight="400" fill="#1f2937">SIEVE</text><rect x="150" y="63" width="533.6" height="18" rx="3" fill="#94a3b8"/><line x1="678.1" y1="72" x2="689.2" y2="72" stroke="#1f2937" stroke-width="1"/><text x="691.6498664737798" y="77" font-family="ui-monospace,monospace" font-size="11" fill="#1f2937">28.4 ± 0.3</text><text x="140" y="107" text-anchor="end" font-family="ui-monospace,monospace" font-size="12" font-weight="400" fill="#1f2937">tiny-lru</text><rect x="150" y="93" width="465.0" height="18" rx="3" fill="#94a3b8"/><line x1="609.2" y1="102" x2="620.7" y2="102" stroke="#1f2937" stroke-width="1"/><text x="622.9713634541299" y="107" font-family="ui-monospace,monospace" font-size="11" fill="#1f2937">24.7 ± 0.3</text><text x="140" y="137" text-anchor="end" font-family="ui-monospace,monospace" font-size="12" font-weight="400" fill="#1f2937">CLOCK</text><rect x="150" y="123" width="403.2" height="18" rx="3" fill="#94a3b8"/><line x1="549.3" y1="132" x2="557.1" y2="132" stroke="#1f2937" stroke-width="1"/><text x="561.2250304521432" y="137" font-family="ui-monospace,monospace" font-size="11" fill="#1f2937">21.4 ± 0.2</text><text x="140" y="167" text-anchor="end" font-family="ui-monospace,monospace" font-size="12" font-weight="400" fill="#1f2937">quick-lru</text><rect x="150" y="153" width="353.0" height="18" rx="3" fill="#94a3b8"/><line x1="500.7" y1="162" x2="505.2" y2="162" stroke="#1f2937" stroke-width="1"/><text x="510.95881134134714" y="167" font-family="ui-monospace,monospace" font-size="11" fill="#1f2937">18.8 ± 0.1</text><text x="140" y="197" text-anchor="end" font-family="ui-monospace,monospace" font-size="12" font-weight="400" fill="#1f2937">mnemonist</text><rect x="150" y="183" width="349.8" height="18" rx="3" fill="#94a3b8"/><line x1="496.4" y1="192" x2="503.3" y2="192" stroke="#1f2937" stroke-width="1"/><text x="507.84576449847475" y="197" font-family="ui-monospace,monospace" font-size="11" fill="#1f2937">18.6 ± 0.2</text><text x="140" y="227" text-anchor="end" font-family="ui-monospace,monospace" font-size="12" font-weight="400" fill="#1f2937">Random</text><rect x="150" y="213" width="332.6" height="18" rx="3" fill="#94a3b8"/><line x1="478.1" y1="222" x2="487.2" y2="222" stroke="#1f2937" stroke-width="1"/><text x="490.6492974534936" y="227" font-family="ui-monospace,monospace" font-size="11" fill="#1f2937">17.7 ± 0.2</text><text x="140" y="257" text-anchor="end" font-family="ui-monospace,monospace" font-size="12" font-weight="400" fill="#1f2937">lru.min</text><rect x="150" y="243" width="313.3" height="18" rx="3" fill="#94a3b8"/><line x1="460.8" y1="252" x2="465.9" y2="252" stroke="#1f2937" stroke-width="1"/><text x="471.33395896630844" y="257" font-family="ui-monospace,monospace" font-size="11" fill="#1f2937">16.7 ± 0.1</text><text x="140" y="287" text-anchor="end" font-family="ui-monospace,monospace" font-size="12" font-weight="400" fill="#1f2937">lru-cache</text><rect x="150" y="273" width="266.2" height="18" rx="3" fill="#94a3b8"/><line x1="414.6" y1="282" x2="417.8" y2="282" stroke="#1f2937" stroke-width="1"/><text x="424.2067775657338" y="287" font-family="ui-monospace,monospace" font-size="11" fill="#1f2937">14.2 ± 0.1</text><text x="140" y="317" text-anchor="end" font-family="ui-monospace,monospace" font-size="12" font-weight="400" fill="#1f2937">hashlru</text><rect x="150" y="303" width="219.0" height="18" rx="3" fill="#94a3b8"/><line x1="366.9" y1="312" x2="371.0" y2="312" stroke="#1f2937" stroke-width="1"/><text x="376.95212710207" y="317" font-family="ui-monospace,monospace" font-size="11" fill="#1f2937">11.6 ± 0.1</text><text x="140" y="347" text-anchor="end" font-family="ui-monospace,monospace" font-size="12" font-weight="700" fill="#1f2937">caffea</text><rect x="150" y="333" width="208.0" height="18" rx="3" fill="#0ea5e9"/><line x1="356.8" y1="342" x2="359.2" y2="342" stroke="#1f2937" stroke-width="1"/><text x="366.0126467261541" y="347" font-family="ui-monospace,monospace" font-size="11" fill="#1f2937">11.1 ± 0.1</text><text x="140" y="377" text-anchor="end" font-family="ui-monospace,monospace" font-size="12" font-weight="400" fill="#1f2937">transitory</text><rect x="150" y="363" width="167.0" height="18" rx="3" fill="#94a3b8"/><line x1="312.5" y1="372" x2="321.5" y2="372" stroke="#1f2937" stroke-width="1"/><text x="324.985155874464" y="377" font-family="ui-monospace,monospace" font-size="11" fill="#1f2937">8.9 ± 0.2</text><text x="140" y="407" text-anchor="end" font-family="ui-monospace,monospace" font-size="12" font-weight="400" fill="#1f2937">LRU</text><rect x="150" y="393" width="116.7" height="18" rx="3" fill="#94a3b8"/><line x1="265.7" y1="402" x2="267.7" y2="402" stroke="#1f2937" stroke-width="1"/><text x="274.70236948779" y="407" font-family="ui-monospace,monospace" font-size="11" fill="#1f2937">6.2 ± 0.1</text><text x="140" y="437" text-anchor="end" font-family="ui-monospace,monospace" font-size="12" font-weight="400" fill="#1f2937">LFU</text><rect x="150" y="423" width="109.6" height="18" rx="3" fill="#94a3b8"/><line x1="258.5" y1="432" x2="260.8" y2="432" stroke="#1f2937" stroke-width="1"/><text x="267.6208637995676" y="437" font-family="ui-monospace,monospace" font-size="11" fill="#1f2937">5.8 ± 0.1</text><text x="140" y="467" text-anchor="end" font-family="ui-monospace,monospace" font-size="12" font-weight="400" fill="#1f2937">FIFO</text><rect x="150" y="453" width="90.3" height="18" rx="3" fill="#94a3b8"/><line x1="240.1" y1="462" x2="240.5" y2="462" stroke="#1f2937" stroke-width="1"/><text x="248.3101394446942" y="467" font-family="ui-monospace,monospace" font-size="11" fill="#1f2937">4.8 ± 0.0</text><text x="140" y="497" text-anchor="end" font-family="ui-monospace,monospace" font-size="12" font-weight="400" fill="#1f2937">S3-FIFO</text><rect x="150" y="483" width="73.9" height="18" rx="3" fill="#94a3b8"/><line x1="223.5" y1="492" x2="224.3" y2="492" stroke="#1f2937" stroke-width="1"/><text x="231.88502901254304" y="497" font-family="ui-monospace,monospace" font-size="11" fill="#1f2937">3.9 ± 0.0</text><text x="700" y="526" text-anchor="end" font-family="ui-monospace,monospace" font-size="11" fill="#6b7280">Mops/s</text></svg>