<svg xmlns="http://www.w3.org/2000/svg" viewBox="0 0 760 534" width="760" height="534" role="img"><rect x="0" y="0" width="760" height="534" rx="10" fill="#ffffff" stroke="#d1d5db"/><text x="24" y="26" font-family="ui-monospace,monospace" font-size="16" font-weight="700" fill="#1f2937">Throughput: scan</text><text x="24" y="44" font-family="ui-monospace,monospace" font-size="11" fill="#6b7280">higher is better, error bars are 95% CI</text><text x="140" y="77" text-anchor="end" font-family="ui-monospace,monospace" font-size="12" font-weight="400" fill="#1f2937">SIEVE</text><rect x="150" y="63" width="536.3" height="18" rx="3" fill="#94a3b8"/><line x1="683.4" y1="72" x2="689.2" y2="72" stroke="#1f2937" stroke-width="1"/><text x="694.3034847625663" y="77" font-family="ui-monospace,monospace" font-size="11" fill="#1f2937">26.5 ± 0.1</text><text x="140" y="107" text-anchor="end" font-family="ui-monospace,monospace" font-size="12" font-weight="400" fill="#1f2937">CLOCK</text><rect x="150" y="93" width="392.2" height="18" rx="3" fill="#94a3b8"/><line x1="538.7" y1="102" x2="545.6" y2="102" stroke="#1f2937" stroke-width="1"/><text x="550.1711824987137" y="107" font-family="ui-monospace,monospace" font-size="11" fill="#1f2937">19.4 ± 0.2</text><text x="140" y="137" text-anchor="end" font-family="ui-monospace,monospace" font-size="12" font-weight="400" fill="#1f2937">quick-lru</text><rect x="150" y="123" width="358.3" height="18" rx="3" fill="#94a3b8"/><line x1="506.4" y1="132" x2="510.2" y2="132" stroke="#1f2937" stroke-width="1"/><text x="516.297508325143" y="137" font-family="ui-monospace,monospace" font-size="11" fill="#1f2937">17.7 ± 0.1</text><text x="140" y="167" text-anchor="end" font-family="ui-monospace,monospace" font-size="12" font-weight="400" fill="#1f2937">mnemonist</text><rect x="150" y="153" width="345.2" height="18" rx="3" fill="#94a3b8"/><line x1="491.8" y1="162" x2="498.6" y2="162" stroke="#1f2937" stroke-width="1"/><text x="503.2314189140219" y="167" font-family="ui-monospace,monospace" font-size="11" fill="#1f2937">17.1 ± 0.2</text><text x="140" y="197" text-anchor="end" font-family="ui-monospace,monospace" font-size="12" font-weight="400" fill="#1f2937">lru.min</text><rect x="150" y="183" width="311.3" height="18" rx="3" fill="#94a3b8"/><line x1="455.7" y1="192" x2="466.9" y2="192" stroke="#1f2937" stroke-width="1"/><text x="469.27819631986" y="197" font-family="ui-monospace,monospace" font-size="11" fill="#1f2937">15.4 ± 0.3</text><text x="140" y="227" text-anchor="end" font-family="ui-monospace,monospace" font-size="12" font-weight="400" fill="#1f2937">Random</text><rect x="150" y="213" width="311.2" height="18" rx="3" fill="#94a3b8"/><line x1="457.0" y1="222" x2="465.5" y2="222" stroke="#1f2937" stroke-width="1"/><text x="469.2057241845404" y="227" font-family="ui-monospace,monospace" font-size="11" fill="#1f2937">15.4 ± 0.2</text><text x="140" y="257" text-anchor="end" font-family="ui-monospace,monospace" font-size="12" font-weight="400" fill="#1f2937">lru-cache</text><rect x="150" y="243" width="270.0" height="18" rx="3" fill="#94a3b8"/><line x1="419.1" y1="252" x2="421.0" y2="252" stroke="#1f2937" stroke-width="1"/><text x="428.0357826363117" y="257" font-family="ui-monospace,monospace" font-size="11" fill="#1f2937">13.4 ± 0.0</text><text x="140" y="287" text-anchor="end" font-family="ui-monospace,monospace" font-size="12" font-weight="400" fill="#1f2937">tiny-lru</text><rect x="150" y="273" width="223.6" height="18" rx="3" fill="#94a3b8"/><line x1="372.3" y1="282" x2="374.9" y2="282" stroke="#1f2937" stroke-width="1"/><text x="381.5804945924466" y="287" font-family="ui-monospace,monospace" font-size="11" fill="#1f2937">11.1 ± 0.1</text><text x="140" y="317" text-anchor="end" font-family="ui-monospace,monospace" font-size="12" font-weight="400" fill="#1f2937">hashlru</text><rect x="150" y="303" width="216.1" height="18" rx="3" fill="#94a3b8"/><line x1="364.2" y1="312" x2="368.1" y2="312" stroke="#1f2937" stroke-width="1"/><text x="374.12865924483714" y="317" font-family="ui-monospace,monospace" font-size="11" fill="#1f2937">10.7 ± 0.1</text><text x="140" y="347" text-anchor="end" font-family="ui-monospace,monospace" font-size="12" font-weight="700" fill="#1f2937">caffea</text><rect x="150" y="333" width="203.3" height="18" rx="3" fill="#0ea5e9"/><line x1="351.1" y1="342" x2="355.4" y2="342" stroke="#1f2937" stroke-width="1"/><text x="361.2600183681363" y="347" font-family="ui-monospace,monospace" font-size="11" fill="#1f2937">10.1 ± 0.1</text><text x="140" y="377" text-anchor="end" font-family="ui-monospace,monospace" font-size="12" font-weight="400" fill="#1f2937">transitory</text><rect x="150" y="363" width="169.6" height="18" rx="3" fill="#94a3b8"/><line x1="318.5" y1="372" x2="320.7" y2="372" stroke="#1f2937" stroke-width="1"/><text x="327.58826238126517" y="377" font-family="ui-monospace,monospace" font-size="11" fill="#1f2937">8.4 ± 0.1</text><text x="140" y="407" text-anchor="end" font-family="ui-monospace,monospace" font-size="12" font-weight="400" fill="#1f2937">LRU</text><rect x="150" y="393" width="134.4" height="18" rx="3" fill="#94a3b8"/><line x1="283.7" y1="402" x2="285.0" y2="402" stroke="#1f2937" stroke-width="1"/><text x="292.35169102149405" y="407" font-family="ui-monospace,monospace" font-size="11" fill="#1f2937">6.6 ± 0.0</text><text x="140" y="437" text-anchor="end" font-family="ui-monospace,monospace" font-size="12" font-weight="400" fill="#1f2937">LFU</text><rect x="150" y="423" width="109.5" height="18" rx="3" fill="#94a3b8"/><line x1="257.5" y1="432" x2="261.5" y2="432" stroke="#1f2937" stroke-width="1"/><text x="267.51061958521024" y="437" font-family="ui-monospace,monospace" font-size="11" fill="#1f2937">5.4 ± 0.1</text><text x="140" y="467" text-anchor="end" font-family="ui-monospace,monospace" font-size="12" font-weight="400" fill="#1f2937">FIFO</text><rect x="150" y="453" width="94.6" height="18" rx="3" fill="#94a3b8"/><line x1="242.3" y1="462" x2="246.8" y2="462" stroke="#1f2937" stroke-width="1"/><text x="252.555532493735" y="467" font-family="ui-monospace,monospace" font-size="11" fill="#1f2937">4.7 ± 0.1</text><text x="140" y="497" text-anchor="end" font-family="ui-monospace,monospace" font-size="12" font-weight="400" fill="#1f2937">S3-FIFO</text><rect x="150" y="483" width="74.3" height="18" rx="3" fill="#94a3b8"/><line x1="224.1" y1="492" x2="224.6" y2="492" stroke="#1f2937" stroke-width="1"/><text x="232.30558943018787" y="497" font-family="ui-monospace,monospace" font-size="11" fill="#1f2937">3.7 ± 0.0</text><text x="700" y="526" text-anchor="end" font-family="ui-monospace,monospace" font-size="11" fill="#6b7280">Mops/s</text></svg>