<svg xmlns="http://www.w3.org/2000/svg" viewBox="0 0 760 534" width="760" height="534" role="img"><rect x="0" y="0" width="760" height="534" rx="10" fill="#ffffff" stroke="#d1d5db"/><text x="24" y="26" font-family="ui-monospace,monospace" font-size="16" font-weight="700" fill="#1f2937">Throughput: scan</text><text x="24" y="44" font-family="ui-monospace,monospace" font-size="11" fill="#6b7280">higher is better, error bars are 95% CI</text><text x="140" y="77" text-anchor="end" font-family="ui-monospace,monospace" font-size="12" font-weight="400" fill="#1f2937">SIEVE</text><rect x="150" y="63" width="533.7" height="18" rx="3" fill="#94a3b8"/><line x1="678.1" y1="72" x2="689.2" y2="72" stroke="#1f2937" stroke-width="1"/><text x="691.6512240351502" y="77" font-family="ui-monospace,monospace" font-size="11" fill="#1f2937">26.8 ± 0.3</text><text x="140" y="107" text-anchor="end" font-family="ui-monospace,monospace" font-size="12" font-weight="400" fill="#1f2937">CLOCK</text><rect x="150" y="93" width="385.5" height="18" rx="3" fill="#94a3b8"/><line x1="528.3" y1="102" x2="542.7" y2="102" stroke="#1f2937" stroke-width="1"/><text x="543.4769238750367" y="107" font-family="ui-monospace,monospace" font-size="11" fill="#1f2937">19.4 ± 0.4</text><text x="140" y="137" text-anchor="end" font-family="ui-monospace,monospace" font-size="12" font-weight="400" fill="#1f2937">mnemonist</text><rect x="150" y="123" width="334.0" height="18" rx="3" fill="#94a3b8"/><line x1="482.2" y1="132" x2="485.9" y2="132" stroke="#1f2937" stroke-width="1"/><text x="492.00270987239793" y="137" font-family="ui-monospace,monospace" font-size="11" fill="#1f2937">16.8 ± 0.1</text><text x="140" y="167" text-anchor="end" font-family="ui-monospace,monospace" font-size="12" font-weight="400" fill="#1f2937">quick-lru</text><rect x="150" y="153" width="323.9" height="18" rx="3" fill="#94a3b8"/><line x1="463.8" y1="162" x2="484.1" y2="162" stroke="#1f2937" stroke-width="1"/><text x="481.91081169097697" y="167" font-family="ui-monospace,monospace" font-size="11" fill="#1f2937">16.3 ± 0.5</text><text x="140" y="197" text-anchor="end" font-family="ui-monospace,monospace" font-size="12" font-weight="400" fill="#1f2937">Random</text><rect x="150" y="183" width="314.7" height="18" rx="3" fill="#94a3b8"/><line x1="459.6" y1="192" x2="469.7" y2="192" stroke="#1f2937" stroke-width="1"/><text x="472.661816620711" y="197" font-family="ui-monospace,monospace" font-size="11" fill="#1f2937">15.8 ± 0.3</text><text x="140" y="227" text-anchor="end" font-family="ui-monospace,monospace" font-size="12" font-weight="400" fill="#1f2937">lru.min</text><rect x="150" y="213" width="300.8" height="18" rx="3" fill="#94a3b8"/><line x1="447.1" y1="222" x2="454.5" y2="222" stroke="#1f2937" stroke-width="1"/><text x="458.7957039298251" y="227" font-family="ui-monospace,monospace" font-size="11" fill="#1f2937">15.1 ± 0.2</text><text x="140" y="257" text-anchor="end" font-family="ui-monospace,monospace" font-size="12" font-weight="400" fill="#1f2937">lru-cache</text><rect x="150" y="243" width="263.1" height="18" rx="3" fill="#94a3b8"/><line x1="411.9" y1="252" x2="414.4" y2="252" stroke="#1f2937" stroke-width="1"/><text x="421.1494704034421" y="257" font-family="ui-monospace,monospace" font-size="11" fill="#1f2937">13.2 ± 0.1</text><text x="140" y="287" text-anchor="end" font-family="ui-monospace,monospace" font-size="12" font-weight="400" fill="#1f2937">tiny-lru</text><rect x="150" y="273" width="215.7" height="18" rx="3" fill="#94a3b8"/><line x1="363.3" y1="282" x2="368.1" y2="282" stroke="#1f2937" stroke-width="1"/><text x="373.7270267069566" y="287" font-family="ui-monospace,monospace" font-size="11" fill="#1f2937">10.8 ± 0.1</text><text x="140" y="317" text-anchor="end" font-family="ui-monospace,monospace" font-size="12" font-weight="400" fill="#1f2937">hashlru</text><rect x="150" y="303" width="213.2" height="18" rx="3" fill="#94a3b8"/><line x1="361.5" y1="312" x2="365.0" y2="312" stroke="#1f2937" stroke-width="1"/><text x="371.2309580834543" y="317" font-family="ui-monospace,monospace" font-size="11" fill="#1f2937">10.7 ± 0.1</text><text x="140" y="347" text-anchor="end" font-family="ui-monospace,monospace" font-size="12" font-weight="700" fill="#1f2937">koffein</text><rect x="150" y="333" width="199.5" height="18" rx="3" fill="#0ea5e9"/><line x1="348.1" y1="342" x2="351.0" y2="342" stroke="#1f2937" stroke-width="1"/><text x="357.50912623619104" y="347" font-family="ui-monospace,monospace" font-size="11" fill="#1f2937">10.0 ± 0.1</text><text x="140" y="377" text-anchor="end" font-family="ui-monospace,monospace" font-size="12" font-weight="400" fill="#1f2937">transitory</text><rect x="150" y="363" width="165.4" height="18" rx="3" fill="#94a3b8"/><line x1="314.8" y1="372" x2="316.0" y2="372" stroke="#1f2937" stroke-width="1"/><text x="323.4160130368313" y="377" font-family="ui-monospace,monospace" font-size="11" fill="#1f2937">8.3 ± 0.0</text><text x="140" y="407" text-anchor="end" font-family="ui-monospace,monospace" font-size="12" font-weight="400" fill="#1f2937">LRU</text><rect x="150" y="393" width="133.0" height="18" rx="3" fill="#94a3b8"/><line x1="282.3" y1="402" x2="283.8" y2="402" stroke="#1f2937" stroke-width="1"/><text x="291.0431040360404" y="407" font-family="ui-monospace,monospace" font-size="11" fill="#1f2937">6.7 ± 0.0</text><text x="140" y="437" text-anchor="end" font-family="ui-monospace,monospace" font-size="12" font-weight="400" fill="#1f2937">LFU</text><rect x="150" y="423" width="103.7" height="18" rx="3" fill="#94a3b8"/><line x1="250.6" y1="432" x2="256.9" y2="432" stroke="#1f2937" stroke-width="1"/><text x="261.7109951617206" y="437" font-family="ui-monospace,monospace" font-size="11" fill="#1f2937">5.2 ± 0.2</text><text x="140" y="467" text-anchor="end" font-family="ui-monospace,monospace" font-size="12" font-weight="400" fill="#1f2937">FIFO</text><rect x="150" y="453" width="95.2" height="18" rx="3" fill="#94a3b8"/><line x1="245.1" y1="462" x2="245.4" y2="462" stroke="#1f2937" stroke-width="1"/><text x="253.22060116615302" y="467" font-family="ui-monospace,monospace" font-size="11" fill="#1f2937">4.8 ± 0.0</text><text x="140" y="497" text-anchor="end" font-family="ui-monospace,monospace" font-size="12" font-weight="400" fill="#1f2937">S3-FIFO</text><rect x="150" y="483" width="72.8" height="18" rx="3" fill="#94a3b8"/><line x1="222.4" y1="492" x2="223.2" y2="492" stroke="#1f2937" stroke-width="1"/><text x="230.79680830865362" y="497" font-family="ui-monospace,monospace" font-size="11" fill="#1f2937">3.7 ± 0.0</text><text x="700" y="526" text-anchor="end" font-family="ui-monospace,monospace" font-size="11" fill="#6b7280">Mops/s</text></svg>