<svg xmlns="http://www.w3.org/2000/svg" viewBox="0 0 760 534" width="760" height="534" role="img"><rect x="0" y="0" width="760" height="534" rx="10" fill="#ffffff" stroke="#d1d5db"/><text x="24" y="26" font-family="ui-monospace,monospace" font-size="16" font-weight="700" fill="#1f2937">Throughput: zipf-0.9</text><text x="24" y="44" font-family="ui-monospace,monospace" font-size="11" fill="#6b7280">higher is better, error bars are 95% CI</text><text x="140" y="77" text-anchor="end" font-family="ui-monospace,monospace" font-size="12" font-weight="400" fill="#1f2937">SIEVE</text><rect x="150" y="63" width="534.4" height="18" rx="3" fill="#94a3b8"/><line x1="679.6" y1="72" x2="689.2" y2="72" stroke="#1f2937" stroke-width="1"/><text x="692.4154372219107" y="77" font-family="ui-monospace,monospace" font-size="11" fill="#1f2937">25.4 ± 0.2</text><text x="140" y="107" text-anchor="end" font-family="ui-monospace,monospace" font-size="12" font-weight="400" fill="#1f2937">tiny-lru</text><rect x="150" y="93" width="439.7" height="18" rx="3" fill="#94a3b8"/><line x1="564.9" y1="102" x2="614.5" y2="102" stroke="#1f2937" stroke-width="1"/><text x="597.7016072055242" y="107" font-family="ui-monospace,monospace" font-size="11" fill="#1f2937">20.9 ± 1.2</text><text x="140" y="137" text-anchor="end" font-family="ui-monospace,monospace" font-size="12" font-weight="400" fill="#1f2937">CLOCK</text><rect x="150" y="123" width="393.0" height="18" rx="3" fill="#94a3b8"/><line x1="538.0" y1="132" x2="548.0" y2="132" stroke="#1f2937" stroke-width="1"/><text x="551.0037146334871" y="137" font-family="ui-monospace,monospace" font-size="11" fill="#1f2937">18.7 ± 0.2</text><text x="140" y="167" text-anchor="end" font-family="ui-monospace,monospace" font-size="12" font-weight="400" fill="#1f2937">quick-lru</text><rect x="150" y="153" width="367.2" height="18" rx="3" fill="#94a3b8"/><line x1="515.1" y1="162" x2="519.3" y2="162" stroke="#1f2937" stroke-width="1"/><text x="525.1889920901859" y="167" font-family="ui-monospace,monospace" font-size="11" fill="#1f2937">17.5 ± 0.1</text><text x="140" y="197" text-anchor="end" font-family="ui-monospace,monospace" font-size="12" font-weight="400" fill="#1f2937">mnemonist</text><rect x="150" y="183" width="343.9" height="18" rx="3" fill="#94a3b8"/><line x1="492.6" y1="192" x2="495.1" y2="192" stroke="#1f2937" stroke-width="1"/><text x="501.87403259505425" y="197" font-family="ui-monospace,monospace" font-size="11" fill="#1f2937">16.4 ± 0.1</text><text x="140" y="227" text-anchor="end" font-family="ui-monospace,monospace" font-size="12" font-weight="400" fill="#1f2937">Random</text><rect x="150" y="213" width="320.1" height="18" rx="3" fill="#94a3b8"/><line x1="467.5" y1="222" x2="472.7" y2="222" stroke="#1f2937" stroke-width="1"/><text x="478.0856108910732" y="227" font-family="ui-monospace,monospace" font-size="11" fill="#1f2937">15.2 ± 0.1</text><text x="140" y="257" text-anchor="end" font-family="ui-monospace,monospace" font-size="12" font-weight="400" fill="#1f2937">lru.min</text><rect x="150" y="243" width="312.0" height="18" rx="3" fill="#94a3b8"/><line x1="458.5" y1="252" x2="465.5" y2="252" stroke="#1f2937" stroke-width="1"/><text x="469.970489884545" y="257" font-family="ui-monospace,monospace" font-size="11" fill="#1f2937">14.8 ± 0.2</text><text x="140" y="287" text-anchor="end" font-family="ui-monospace,monospace" font-size="12" font-weight="400" fill="#1f2937">lru-cache</text><rect x="150" y="273" width="262.6" height="18" rx="3" fill="#94a3b8"/><line x1="408.9" y1="282" x2="416.4" y2="282" stroke="#1f2937" stroke-width="1"/><text x="420.6091795750891" y="287" font-family="ui-monospace,monospace" font-size="11" fill="#1f2937">12.5 ± 0.2</text><text x="140" y="317" text-anchor="end" font-family="ui-monospace,monospace" font-size="12" font-weight="400" fill="#1f2937">hashlru</text><rect x="150" y="303" width="212.9" height="18" rx="3" fill="#94a3b8"/><line x1="361.6" y1="312" x2="364.2" y2="312" stroke="#1f2937" stroke-width="1"/><text x="370.880251755362" y="317" font-family="ui-monospace,monospace" font-size="11" fill="#1f2937">10.1 ± 0.1</text><text x="140" y="347" text-anchor="end" font-family="ui-monospace,monospace" font-size="12" font-weight="700" fill="#1f2937">koffein</text><rect x="150" y="333" width="207.7" height="18" rx="3" fill="#0ea5e9"/><line x1="357.0" y1="342" x2="358.3" y2="342" stroke="#1f2937" stroke-width="1"/><text x="365.6707740594898" y="347" font-family="ui-monospace,monospace" font-size="11" fill="#1f2937">9.9 ± 0.0</text><text x="140" y="377" text-anchor="end" font-family="ui-monospace,monospace" font-size="12" font-weight="400" fill="#1f2937">transitory</text><rect x="150" y="363" width="164.2" height="18" rx="3" fill="#94a3b8"/><line x1="312.4" y1="372" x2="316.0" y2="372" stroke="#1f2937" stroke-width="1"/><text x="322.15482100313807" y="377" font-family="ui-monospace,monospace" font-size="11" fill="#1f2937">7.8 ± 0.1</text><text x="140" y="407" text-anchor="end" font-family="ui-monospace,monospace" font-size="12" font-weight="400" fill="#1f2937">LRU</text><rect x="150" y="393" width="120.8" height="18" rx="3" fill="#94a3b8"/><line x1="270.6" y1="402" x2="271.1" y2="402" stroke="#1f2937" stroke-width="1"/><text x="278.83485471991736" y="407" font-family="ui-monospace,monospace" font-size="11" fill="#1f2937">5.7 ± 0.0</text><text x="140" y="437" text-anchor="end" font-family="ui-monospace,monospace" font-size="12" font-weight="400" fill="#1f2937">LFU</text><rect x="150" y="423" width="113.3" height="18" rx="3" fill="#94a3b8"/><line x1="262.5" y1="432" x2="264.0" y2="432" stroke="#1f2937" stroke-width="1"/><text x="271.28442807438813" y="437" font-family="ui-monospace,monospace" font-size="11" fill="#1f2937">5.4 ± 0.0</text><text x="140" y="467" text-anchor="end" font-family="ui-monospace,monospace" font-size="12" font-weight="400" fill="#1f2937">FIFO</text><rect x="150" y="453" width="84.8" height="18" rx="3" fill="#94a3b8"/><line x1="234.5" y1="462" x2="235.1" y2="462" stroke="#1f2937" stroke-width="1"/><text x="242.77883889168322" y="467" font-family="ui-monospace,monospace" font-size="11" fill="#1f2937">4.0 ± 0.0</text><text x="140" y="497" text-anchor="end" font-family="ui-monospace,monospace" font-size="12" font-weight="400" fill="#1f2937">S3-FIFO</text><rect x="150" y="483" width="66.8" height="18" rx="3" fill="#94a3b8"/><line x1="216.0" y1="492" x2="217.5" y2="492" stroke="#1f2937" stroke-width="1"/><text x="224.77166241857125" y="497" font-family="ui-monospace,monospace" font-size="11" fill="#1f2937">3.2 ± 0.0</text><text x="700" y="526" text-anchor="end" font-family="ui-monospace,monospace" font-size="11" fill="#6b7280">Mops/s</text></svg>